<svg width="34" height="34" viewBox="0 0 34 34" fill="none" xmlns="http://www.w3.org/2000/svg">
<g clip-path="url(#clip0_381_965)">
<rect width="34" height="34" rx="17" fill="url(#paint0_linear_381_965)"/>
<path d="M13.9731 23.6724C14.9547 22.0404 17.2081 18.9122 22.5737 14.5166C30.6702 7.8838 23.0287 1.81698 14.8195 5.04814C13.9413 5.39384 11.5078 4.00994 9.2536 5.46789C7.79947 6.40838 8.36538 7.14543 7.79917 7.88249C7.23297 8.61955 5.05006 8.57617 4.57185 10.49C4.28863 11.6239 5.07239 12.8116 4.96756 13.665C4.86273 14.5185 4.03535 15.2877 3.99588 16.4144C3.97879 16.8903 4.05561 17.3648 4.22196 17.811C4.3883 18.2571 4.64091 18.6662 4.96536 19.0147C5.2898 19.3632 5.67973 19.6444 6.11287 19.8422C6.546 20.04 7.01386 20.1505 7.48972 20.1675C7.49361 21.1082 7.86093 22.011 8.51492 22.6873C9.16891 23.3635 10.059 23.7608 10.999 23.7962C11.6018 23.8182 12.2005 23.6885 12.7402 23.419C13.2756 23.9125 13.7353 24.0677 13.9731 23.6724Z" fill="url(#paint1_linear_381_965)"/>
<path d="M14.1666 21.9865C14.1666 20.9665 14.1319 15.9354 14.1336 15.8504C11.3332 16.2631 11.3899 10.9365 14.2232 12.2398C14.8466 12.6365 16.6032 12.2398 16.4332 8.95312C19.4932 12.2398 23.0459 8.4064 23.3505 11.5301C23.7666 15.7954 23.348 20.2591 20.6973 20.2595C20.4073 20.256 20.1182 20.2271 19.8332 20.1731V21.9865C19.8332 23.1198 21.8732 23.6865 21.8732 23.6865C21.8732 23.6865 18.3495 27.0071 16.8866 26.9888C15.4237 26.9704 12.1266 23.6865 12.1266 23.6865C12.1266 23.6865 14.1666 23.1198 14.1666 21.9865Z" fill="url(#paint2_linear_381_965)"/>
<path style="mix-blend-mode:multiply" opacity="0.7" d="M19.8332 20.1726C18.4271 19.8608 17.0948 19.2797 15.9097 18.4614C15.9097 18.4614 16.8875 20.852 19.8295 21.3055L19.8332 20.1726Z" fill="url(#paint3_linear_381_965)"/>
<path d="M27.4265 27.0868C28.2488 28.9139 28.6732 34.4534 28.6732 34.4534H5.32654C5.32654 34.4534 5.75097 28.9139 6.5732 27.0868C7.29355 25.4862 12.0403 23.6484 13.4313 23.1201C14.2345 24.0186 15.3856 24.5935 16.9999 24.5935C18.6142 24.5935 19.7652 24.0186 20.5684 23.1201C21.9595 23.6484 26.7062 25.4862 27.4265 27.0868Z" fill="url(#paint4_linear_381_965)"/>
<path d="M6.35508 27.1234C6.97184 25.9505 9.00175 24.7199 10.8788 23.8904C11.8149 23.4768 14.6199 35.3599 14.6199 35.3599H5.22265C5.22265 35.3599 5.10943 29.4922 6.35508 27.1234Z" fill="url(#paint5_linear_381_965)"/>
</g>
<defs>
<linearGradient id="paint0_linear_381_965" x1="17" y1="0" x2="17" y2="34" gradientUnits="userSpaceOnUse">
<stop stop-color="#806A6A"/>
<stop offset="1" stop-color="#665654"/>
</linearGradient>
<linearGradient id="paint1_linear_381_965" x1="15.3131" y1="4.00531" x2="14.615" y2="23.932" gradientUnits="userSpaceOnUse">
<stop stop-color="#1D0024"/>
<stop offset="1" stop-color="#100014"/>
</linearGradient>
<linearGradient id="paint2_linear_381_965" x1="17.7774" y1="8.95312" x2="17.7774" y2="26.9888" gradientUnits="userSpaceOnUse">
<stop stop-color="#E6864E"/>
<stop offset="1" stop-color="#EB965E"/>
</linearGradient>
<linearGradient id="paint3_linear_381_965" x1="16.6506" y1="18.9963" x2="17.2385" y2="21.6409" gradientUnits="userSpaceOnUse">
<stop stop-color="#E68349"/>
<stop offset="1" stop-color="#F09960"/>
</linearGradient>
<linearGradient id="paint4_linear_381_965" x1="16.9999" y1="34.4534" x2="16.9999" y2="23.1201" gradientUnits="userSpaceOnUse">
<stop stop-color="#FFC9B3"/>
<stop offset="1" stop-color="#FFD2C2"/>
</linearGradient>
<linearGradient id="paint5_linear_381_965" x1="9.91994" y1="35.3599" x2="9.91994" y2="23.8799" gradientUnits="userSpaceOnUse">
<stop stop-color="#FCF2EB"/>
<stop offset="1" stop-color="#FFF9F5"/>
</linearGradient>
<clipPath id="clip0_381_965">
<rect width="34" height="34" rx="17" fill="white"/>
</clipPath>
</defs>
</svg>
